<?xml version="1.0" encoding="UTF-8"?>
<svg id="Layer_1" xmlns="http://www.w3.org/2000/svg" xmlns:xlink="http://www.w3.org/1999/xlink" version="1.1" viewBox="0 0 2500 2500">
  <!-- Generator: Adobe Illustrator 29.8.1, SVG Export Plug-In . SVG Version: 2.1.1 Build 2)  -->
  <defs>
    <style>
      .st0 {
        fill: url(#linear-gradient2);
      }

      .st1 {
        fill: url(#linear-gradient1);
      }

      .st2 {
        fill: url(#linear-gradient3);
      }

      .st3 {
        fill: url(#linear-gradient4);
      }

      .st4 {
        fill: url(#linear-gradient);
      }

      .st5 {
        fill: #176daf;
      }

      .st6 {
        fill: #fe9812;
      }
    </style>
    <linearGradient id="linear-gradient" x1="821.97" y1="1543.05" x2="274.11" y2="815.43" gradientUnits="userSpaceOnUse">
      <stop offset="0" stop-color="#176daf"/>
      <stop offset="1" stop-color="#5c9ad2"/>
    </linearGradient>
    <linearGradient id="linear-gradient1" x1="1427.8" y1="1086.89" x2="879.94" y2="359.27" xlink:href="#linear-gradient"/>
    <linearGradient id="linear-gradient2" x1="944.72" y1="807.49" x2="1634.75" y2="807.49" gradientUnits="userSpaceOnUse">
      <stop offset="0" stop-color="#fe9812"/>
      <stop offset="1" stop-color="#febf12"/>
    </linearGradient>
    <linearGradient id="linear-gradient3" x1="1322.59" y1="748.09" x2="1904.72" y2="748.09" xlink:href="#linear-gradient2"/>
    <linearGradient id="linear-gradient4" x1="1629.2" y1="804.3" x2="1814.43" y2="804.3" xlink:href="#linear-gradient2"/>
  </defs>
  <g>
    <g>
      <path class="st5" d="M140.1,2304.96v-310.77h41.5v57.63l-7.84,53.02,7.84,53.49v146.62h-41.5ZM255.36,2217.82c-16.6,0-31.58-3.46-44.95-10.37-13.37-6.92-24.05-16.52-32.04-28.82-8-12.3-12.45-26.28-13.37-41.96v-65.94c.92-15.98,5.45-30.05,13.6-42.19,8.14-12.14,18.9-21.67,32.27-28.59,13.37-6.92,28.2-10.38,44.49-10.38,19.98,0,38.04,5.07,54.18,15.21,16.14,10.15,28.82,23.82,38.04,41.04,9.22,17.22,13.83,36.58,13.83,58.09s-4.61,40.88-13.83,58.09c-9.22,17.22-21.9,30.82-38.04,40.81-16.14,9.99-34.2,14.98-54.18,14.98ZM248.45,2178.63c13.83,0,25.97-3.23,36.42-9.68,10.45-6.46,18.68-15.29,24.67-26.51,6-11.21,8.99-24.21,8.99-38.96s-3-27.27-8.99-38.5c-5.99-11.21-14.22-20.05-24.67-26.51-10.45-6.45-22.59-9.68-36.42-9.68s-25.52,3.23-35.97,9.68c-10.45,6.46-18.6,15.3-24.44,26.51-5.84,11.23-8.76,24.21-8.76,38.96s2.84,27.29,8.53,38.5c5.68,11.23,13.83,20.05,24.44,26.51,10.61,6.45,22.67,9.68,36.2,9.68Z"/>
      <path class="st5" d="M496.04,2217.82c-20.28,0-38.5-4.99-54.64-14.98-16.14-9.99-28.89-23.59-38.27-40.81-9.38-17.21-14.06-36.57-14.06-58.09s4.69-40.88,14.06-58.09c9.38-17.21,22.13-30.89,38.27-41.04,16.14-10.15,34.35-15.21,54.64-15.21,16.6,0,31.43,3.46,44.49,10.38,13.06,6.91,23.59,16.44,31.59,28.59,7.99,12.14,12.44,26.21,13.37,42.19v65.94c-.93,15.68-5.31,29.66-13.14,41.96-7.84,12.3-18.38,21.9-31.59,28.82-13.22,6.91-28.13,10.37-44.72,10.37ZM502.96,2178.63c20.59,0,37.18-6.99,49.79-20.98,12.6-13.99,18.91-31.88,18.91-53.72,0-14.75-2.92-27.81-8.76-39.19-5.84-11.37-13.91-20.21-24.21-26.51-10.3-6.29-22.36-9.45-36.19-9.45s-26.05,3.23-36.66,9.68c-10.61,6.46-18.9,15.3-24.9,26.51-5.99,11.23-8.99,24.05-8.99,38.5s3,27.75,8.99,38.96c6,11.23,14.36,20.05,25.13,26.51,10.75,6.45,23.06,9.68,36.89,9.68ZM568.88,2213.21v-59.02l7.84-53.49-7.84-53.02v-53.49h41.96v219.01h-41.96Z"/>
      <path class="st5" d="M737.64,2215.05l-94.98-220.86h46.11l70.54,172.91h-14.75l74.23-172.91h46.11l-102.36,220.86h-24.89ZM674.93,2304.96l64.09-132.33,23.51,42.42-41.5,89.91h-46.11Z"/>
      <path class="st5" d="M989.38,2217.82c-19.98,0-37.96-4.99-53.95-14.98-15.98-9.99-28.66-23.59-38.04-40.81-9.38-17.21-14.06-36.57-14.06-58.09s4.69-40.88,14.06-58.09c9.38-17.21,22.06-30.89,38.04-41.04,15.98-10.15,33.96-15.21,53.95-15.21,16.6,0,31.51,3.46,44.72,10.38,13.21,6.91,23.9,16.44,32.05,28.59,8.14,12.14,12.67,26.21,13.6,42.19v65.94c-.93,15.68-5.38,29.66-13.37,41.96-8,12.3-18.61,21.9-31.82,28.82-13.22,6.91-28.29,10.37-45.18,10.37ZM996.3,2178.63c13.83,0,25.97-3.23,36.42-9.68,10.45-6.46,18.59-15.29,24.44-26.51,5.84-11.21,8.76-24.05,8.76-38.5s-2.92-27.74-8.76-38.96c-5.84-11.21-13.99-20.05-24.44-26.51-10.45-6.45-22.59-9.68-36.42-9.68s-25.98,3.16-36.43,9.45c-10.45,6.3-18.67,15.07-24.67,26.28-5.99,11.23-8.99,24.21-8.99,38.96s3,27.82,8.99,39.19c6,11.37,14.29,20.21,24.9,26.51,10.61,6.3,22.67,9.45,36.2,9.45ZM1105.11,2213.21h-41.96v-59.02l7.84-53.49-7.84-53.02v-163.68h41.96v329.21Z"/>
      <path class="st5" d="M1261.4,2217.82c-22.13,0-41.89-4.99-59.25-14.98-17.37-9.99-31.12-23.59-41.27-40.81-10.15-17.21-15.21-36.72-15.21-58.56s4.99-40.88,14.98-58.09c9.99-17.21,23.52-30.81,40.58-40.81,17.06-9.99,36.19-14.98,57.4-14.98,19.98,0,37.81,4.61,53.49,13.83,15.68,9.22,27.9,21.98,36.65,38.27,8.76,16.3,13.14,34.89,13.14,55.79,0,3.07-.15,6.38-.46,9.91-.31,3.54-.92,7.46-1.84,11.76h-184.89v-34.58h162.76l-15.21,13.37c0-14.75-2.62-27.27-7.84-37.58-5.23-10.29-12.61-18.28-22.13-23.98-9.53-5.68-21.05-8.53-34.58-8.53s-26.59,3.07-37.35,9.22c-10.76,6.16-19.06,14.75-24.9,25.82-5.84,11.07-8.76,24.14-8.76,39.19s3.07,28.82,9.22,40.34c6.15,11.53,14.9,20.44,26.28,26.74,11.37,6.3,24.44,9.45,39.19,9.45,12.29,0,23.59-2.15,33.89-6.46,10.29-4.3,19.13-10.75,26.51-19.36l26.74,27.2c-10.76,12.3-23.67,21.67-38.73,28.13-15.07,6.45-31.2,9.68-48.42,9.68Z"/>
      <path class="st5" d="M1503.01,2217.82c-22.13,0-41.89-4.99-59.25-14.98-17.37-9.99-31.12-23.59-41.27-40.81-10.15-17.21-15.21-36.72-15.21-58.56s4.99-40.88,14.98-58.09c9.99-17.21,23.52-30.81,40.58-40.81,17.06-9.99,36.19-14.98,57.4-14.98,19.98,0,37.81,4.61,53.49,13.83,15.68,9.22,27.9,21.98,36.65,38.27,8.76,16.3,13.14,34.89,13.14,55.79,0,3.07-.15,6.38-.46,9.91-.31,3.54-.92,7.46-1.84,11.76h-184.89v-34.58h162.76l-15.21,13.37c0-14.75-2.62-27.27-7.84-37.58-5.23-10.29-12.61-18.28-22.13-23.98-9.53-5.68-21.05-8.53-34.58-8.53s-26.59,3.07-37.35,9.22c-10.76,6.16-19.06,14.75-24.9,25.82-5.84,11.07-8.76,24.14-8.76,39.19s3.07,28.82,9.22,40.34c6.15,11.53,14.9,20.44,26.28,26.74,11.37,6.3,24.44,9.45,39.19,9.45,12.29,0,23.59-2.15,33.89-6.46,10.29-4.3,19.13-10.75,26.51-19.36l26.74,27.2c-10.76,12.3-23.67,21.67-38.73,28.13-15.07,6.45-31.2,9.68-48.42,9.68Z"/>
    </g>
    <g>
      <path class="st6" d="M1677.52,2217.82c-8.92,0-16.14-3-21.67-8.99-5.53-6-8.3-13.14-8.3-21.44s2.77-15.75,8.3-21.44c5.54-5.68,12.76-8.53,21.67-8.53s15.75,2.85,21.44,8.53c5.68,5.69,8.53,12.83,8.53,21.44s-2.84,15.45-8.53,21.44c-5.7,5.99-12.84,8.99-21.44,8.99Z"/>
      <path class="st6" d="M1769.27,2213.21v-219.01h41.5v219.01h-41.5ZM1917.28,2213.21v-132.33c0-16.29-5-29.12-14.99-38.5-9.99-9.38-22.52-14.06-37.57-14.06-10.15,0-19.22,2.15-27.2,6.45-8,4.31-14.45,10.3-19.37,17.98-4.92,7.69-7.37,17.06-7.37,28.13l-17.06-8.76c0-16.6,3.61-31.04,10.83-43.34,7.22-12.29,17.14-21.9,29.74-28.82,12.6-6.92,26.74-10.38,42.42-10.38s29.28,3.39,41.73,10.15c12.45,6.77,22.28,16.3,29.51,28.59,7.21,12.3,10.84,26.9,10.84,43.8v141.09h-41.5ZM2065.28,2213.21v-132.33c0-16.29-5-29.12-14.98-38.5-9.99-9.38-22.36-14.06-37.12-14.06-10.14,0-19.29,2.15-27.43,6.45-8.15,4.31-14.68,10.3-19.59,17.98-4.92,7.69-7.37,17.06-7.37,28.13l-23.52-8.76c.92-16.9,5.45-31.43,13.6-43.57,8.14-12.14,18.67-21.67,31.58-28.59,12.91-6.92,27.04-10.38,42.42-10.38s30.27,3.39,42.88,10.15c12.6,6.77,22.67,16.3,30.2,28.59,7.53,12.3,11.3,27.05,11.3,44.26v140.63h-41.96Z"/>
      <path class="st6" d="M2259.39,2217.82c-22.13,0-41.89-4.99-59.25-14.98-17.37-9.99-31.12-23.59-41.26-40.81-10.15-17.21-15.22-36.72-15.22-58.56s4.99-40.88,14.98-58.09c9.99-17.21,23.52-30.81,40.58-40.81,17.06-9.99,36.2-14.98,57.41-14.98,19.98,0,37.8,4.61,53.48,13.83,15.68,9.22,27.9,21.98,36.66,38.27,8.76,16.3,13.14,34.89,13.14,55.79,0,3.07-.16,6.38-.46,9.91-.31,3.54-.92,7.46-1.84,11.76h-184.9v-34.58h162.76l-15.21,13.37c0-14.75-2.62-27.27-7.83-37.58-5.24-10.29-12.61-18.28-22.13-23.98-9.53-5.68-21.06-8.53-34.58-8.53s-26.59,3.07-37.34,9.22c-10.77,6.16-19.06,14.75-24.9,25.82-5.84,11.07-8.76,24.14-8.76,39.19s3.07,28.82,9.22,40.34c6.15,11.53,14.91,20.44,26.28,26.74,11.37,6.3,24.44,9.45,39.19,9.45,12.29,0,23.59-2.15,33.89-6.46,10.29-4.3,19.14-10.75,26.51-19.36l26.74,27.2c-10.77,12.3-23.68,21.67-38.73,28.13-15.06,6.45-31.2,9.68-48.41,9.68Z"/>
    </g>
  </g>
  <polygon class="st4" points="602.01 1357.75 544.96 1708.26 1083.86 1357.75 602.01 1357.75"/>
  <path class="st1" d="M1418.54,195.04h-292.66l-370.05,240.69v.09s285.78,0,285.78,0h305.22c183.82,0,311.14,133.28,284.38,297.68h0c-26.76,164.4-197.46,297.68-381.27,297.68h-305.22l65.77-404.11-319.63,207.9-71.12,436.99h623.54c332.49,0,641.26-241.08,689.66-538.46h0c48.4-297.38-181.91-538.46-514.4-538.46Z"/>
  <g>
    <path class="st0" d="M1249.95,1031.17c183.82,0,354.52-133.28,381.27-297.68h0c8.88-54.59.7-105.71-20.82-149.69-5.57,3.67-11.25,7.18-17.08,10.45h0c-123.14,69.02-240.69,43.32-322.07,29.14-29.08-5.07-57.15-.81-79.37,12.26,35.67,18,167.23,96.94,257.86,127.61,45.52,15.4,56.1,49.41,26.34,82.86-131.78,148.13-301.04,183.24-531.36,185.05h305.22Z"/>
    <path class="st2" d="M1702.7,504.44c-19.99,12.11-29.61,23.81-52.48,46.99-12.15,12.31-25.56,22.99-39.82,32.38,21.52,43.99,29.71,95.1,20.82,149.69h0c-23.18,142.44-154.43,261.44-308.62,290.72,118.14-14.57,253.45-84.88,356.77-291.63,34.8-69.63,97.19-122.35,155.53-174.66l69.82-62.6c-106.89-43.22-156.94-18.2-202.02,9.12Z"/>
    <path class="st3" d="M1705.04,727.44c-23.78,47.58-49.27,87.86-75.84,121.97l180.66,67.43c8.78-13.28,4.39-40.25-8.77-53.93-93.59-97.28-76.92-164.49-74.95-171.16-7.78,11.43-14.89,23.28-21.09,35.69Z"/>
  </g>
</svg>
